<svg xmlns="http://www.w3.org/2000/svg" width="1200" height="630" viewBox="0 0 1200 630">
  <defs>
    <linearGradient id="bg" x1="0" x2="0" y1="0" y2="1">
      <stop offset="0" stop-color="#111827"/>
      <stop offset="0.55" stop-color="#0f172a"/>
      <stop offset="1" stop-color="#070d19"/>
    </linearGradient>
    <pattern id="grid" width="56" height="56" patternUnits="userSpaceOnUse">
      <path d="M56 0H0V56" fill="none" stroke="#e2e8f0" stroke-opacity="0.045"/>
    </pattern>
    <filter id="shadow" x="-20%" y="-20%" width="140%" height="140%">
      <feDropShadow dx="0" dy="18" flood-color="#000000" flood-opacity="0.34" stdDeviation="18"/>
    </filter>
  </defs>
  <rect width="1200" height="630" fill="url(#bg)"/>
  <rect width="1200" height="630" fill="url(#grid)"/>
  <rect x="72" y="72" width="1056" height="486" rx="8" fill="#1e293b" fill-opacity="0.86" stroke="#e2e8f0" stroke-opacity="0.18" filter="url(#shadow)"/>
  <g transform="translate(104 116)">
    <g transform="translate(14 14)">
      <path d="M20 18L32 35L44 18M32 35V50" fill="none" stroke="#fb7185" stroke-linecap="round" stroke-linejoin="round" stroke-width="7"/>
      <ellipse cx="32" cy="32" fill="none" rx="22" ry="24" stroke="#60a5fa" stroke-width="7"/>
    </g>
  </g>
  <text x="224" y="185" fill="#f8fafc" font-family="Inter, Arial, sans-serif" font-size="88" font-weight="850">Omry Yadan</text>
  <text x="104" y="310" fill="#e2e8f0" font-family="Inter, Arial, sans-serif" font-size="46" font-weight="750">Projects and Blog</text>
  <text x="104" y="390" fill="#60a5fa" font-family="Inter, Arial, sans-serif" font-size="28" font-weight="850" letter-spacing="4">YADAN.NET</text>
  <g fill="#a8b3c5" font-family="Inter, Arial, sans-serif" font-size="26" font-weight="700">
    <text x="104" y="496">Hydra</text>
    <circle cx="190" cy="487" r="4" fill="#fb7185"/>
    <text x="216" y="496">OmegaConf</text>
    <circle cx="370" cy="487" r="4" fill="#fb7185"/>
    <text x="396" y="496">Rakia</text>
    <circle cx="482" cy="487" r="4" fill="#fb7185"/>
    <text x="508" y="496">Blog</text>
  </g>
</svg>
