<svg xmlns="http://www.w3.org/2000/svg" width="128" height="128" viewBox="0 0 128 128" role="img" aria-label="HoodleFinance icon">
  <defs>
    <style>
      .bg { fill: #d6dcdf; }
      .grid-stroke { stroke: #5d86ab; }
      .h-fill { fill: #1b2a3d; }
      .f-fill { fill: #4b86d8; }
      .secondary-fill { fill: #39b8d3; }
      .secondary-stroke { stroke: #39b8d3; }
      .border-stroke { stroke: rgba(93, 134, 171, 0.36); }
    </style>
    <pattern id="grid" width="16" height="16" patternUnits="userSpaceOnUse">
      <path d="M16 0H0V16" fill="none" class="grid-stroke" stroke-width="0.6" opacity="0.13"/>
    </pattern>
    <clipPath id="iconCardClip">
      <rect x="8" y="8" width="112" height="112" rx="18"/>
    </clipPath>
    <linearGradient id="chartFill" x1="0" y1="0" x2="0" y2="1">
      <stop offset="0%" stop-color="#1f95b2" stop-opacity="0.28"/>
      <stop offset="100%" stop-color="#1f95b2" stop-opacity="0"/>
    </linearGradient>
  </defs>

  <g clip-path="url(#iconCardClip)">
    <rect x="8" y="8" width="112" height="112" rx="18" class="bg"/>
    <rect x="8" y="8" width="112" height="112" rx="18" fill="url(#grid)"/>
    <path d="M0 96L18 90L36 100L54 74L72 82L90 58L108 66L128 42V128H0Z" fill="url(#chartFill)"/>
    <path d="M0 96L18 90L36 100L54 74L72 82L90 58L108 66L128 42" fill="none" class="secondary-stroke" stroke-width="2.5" stroke-linejoin="round"/>
  </g>

  <g transform="translate(17 26) scale(3.8) translate(-43.84 -31.42)">
    <path d="M43.84,31.42 L47.60,31.42 L47.60,36.98 L53.14,36.98 L53.14,31.42 L56.90,31.42 L56.90,46.00 L53.14,46.00 L53.14,39.82 L47.60,39.82 L47.60,46.00 L43.84,46.00 L43.84,31.42 Z" class="h-fill" fill-rule="evenodd"/>
  </g>

  <g transform="translate(72 26) scale(3.8) translate(-122.79 -31.42)">
    <path d="M122.79,31.42 L132.94,31.42 L132.94,34.26 L126.55,34.26 L126.55,36.98 L132.56,36.98 L132.56,39.82 L126.55,39.82 L126.55,46.00 L122.79,46.00 L122.79,31.42 Z" class="f-fill" fill-rule="evenodd"/>
  </g>

  <rect x="8.5" y="8.5" width="111" height="111" fill="none" rx="17.5" class="border-stroke"/>
</svg>
