<?xml version="1.0" encoding="UTF-8"?>
<svg xmlns="http://www.w3.org/2000/svg" viewBox="0 0 32 32">
  <path
    fill="#dbeafe"
    d="m30.153777777777776 6.616888888888888 -2.3886222222222218 2.389511111111111s-1.5932444444444442 0.7961777777777778 -3.1856888888888886 -0.7970666666666667c-1.5933333333333333 -1.5924444444444443 -0.7970666666666667 -3.1856888888888886 -0.7970666666666667 -3.1856888888888886l2.389511111111111 -2.389511111111111c0.7970666666666667 -0.7962666666666667 -0.16035555555555556 -1.5262222222222221 -0.8790222222222221 -1.5262222222222221 -3.528888888888889 0 -6.3888 2.859911111111111 -6.3888 6.38791111111111 0 0.4957333333333333 0.06275555555555555 0.9765333333333333 0.16897777777777775 1.44l-5.400088888888889 5.400088888888889 4.778133333333333 4.778133333333333 5.400088888888889 -5.3991999999999996c0.4642666666666666 0.10622222222222222 0.9442666666666666 0.16897777777777775 1.4407999999999999 0.16897777777777775 3.5280888888888886 0 6.387999999999999 -2.859911111111111 6.387999999999999 -6.387999999999999 0.0008888888888888888 -0.7230222222222222 -0.7300444444444444 -1.675111111111111 -1.5262222222222221 -0.8789333333333333Zm-16.574844444444444 7.874933333333332L2.9608 25.109155555555557c-1.3024 1.3032 -1.3024 3.4156444444444443 0 4.718844444444444 1.304 1.3023111111111112 3.4156444444444443 1.3023111111111112 4.718844444444444 0L18.295999999999996 19.210755555555554l-4.717066666666667 -4.718933333333333Zm-8.238222222222223 14.350933333333332c-0.7135111111111111 0 -1.291022222222222 -0.5783999999999999 -1.291022222222222 -1.291022222222222s0.5783999999999999 -1.2918222222222222 1.291022222222222 -1.2918222222222222c0.7134222222222222 0 1.2909333333333333 0.5783999999999999 1.2909333333333333 1.2918222222222222 0 0.7126222222222222 -0.5775111111111111 1.291022222222222 -1.2909333333333333 1.291022222222222Z" />
  <path
    fill="#60a5fa"
    d="M27.177155555555554 30.098044444444444c1.0157333333333334 1.0157333333333334 2.632533333333333 1.0636444444444444 3.589866666666666 0.10542222222222221 0.9583111111111111 -0.9582222222222222 0.9104 -2.574222222222222 -0.10533333333333332 -3.5899555555555556l-20.266755555555555 -20.266666666666666c-1.016622222222222 -1.016622222222222 -2.631644444444444 -1.0636444444444444 -3.589866666666666 -0.10542222222222221 -0.9583111111111111 0.9582222222222222 -0.9104 2.574222222222222 0.10533333333333332 3.5899555555555556l20.266755555555555 20.266666666666666Z" />
  <path
    fill="#93c5fd"
    d="M19.0008 1.8857777777777778s-5.226755555555555 -2.6133333333333333 -9.5824 1.742311111111111l-6.0978666666666665 6.0978666666666665s-0.8711111111111111 -0.8711111111111111 -1.7422222222222221 0l-0.8712 0.8711111111111111s-0.8711111111111111 0.8711111111111111 0 1.7422222222222221l3.4845333333333333 3.4845333333333333s0.8711111111111111 0.8711111111111111 1.7422222222222221 0l0.8712 -0.8711111111111111s0.8711111111111111 -0.8712 0 -1.742311111111111l-0.06799999999999999 -0.0679111111111111c0.6707555555555555 -0.6472888888888888 1.6752 -1.3066666666666666 2.6813333333333333 -0.8031999999999999l3.4845333333333333 -3.4844444444444442s-0.8712 -2.6134222222222223 0.8711111111111111 -4.355644444444445 2.6133333333333333 -1.7422222222222221 4.355644444444445 -1.7422222222222221 0.8711111111111111 -0.8712 0.8711111111111111 -0.8712Z" />
</svg>
